# xmcd CD database file
#
# Track frame offsets:
#	150
#	25356
#	51645
#	76909
#	88800
#	103487
#	116943
#	134491
#	149441
#	161088
#	186793
#	205659
#	217034
#	227102
#	257638
#	274609
#	297187
#	319217
#	337551
#
# Disc length: 4702 seconds
#
# Revision: 0
# Processed by: cddbd v1.5.2PL0 Copyright (c) Steve Scherf et al.
# Submitted via: CDex 1.51
#
DISCID=2a125c13
DTITLE=Jazz Émotions - Les Plus Beaux Thèmes du Cinéma
DYEAR=1900
DGENRE=Jazz
TTITLE0=Someday My prince Will Come
TTITLE1=The Bare Necessities
TTITLE2=The Mooche
TTITLE3=The Pink Panther
TTITLE4=Thunderball
TTITLE5=Who's Afraid Of The Big Bad Wolf
TTITLE6=Laura
TTITLE7=April in Paris
TTITLE8=Tuxedo Junction
TTITLE9=Raiders of The Lost Ark
TTITLE10=Theme from Black orfeus
TTITLE11=Whistle While Your Work
TTITLE12=Flirtibird
TTITLE13=Emily
TTITLE14=Milou
TTITLE15=India Song
TTITLE16=Touchez pas au Grisby
TTITLE17=Theme from taxi driver
TTITLE18=What a Wonderful World
EXTD=
EXTT0=
EXTT1=
EXTT2=
EXTT3=
EXTT4=
EXTT5=
EXTT6=
EXTT7=
EXTT8=
EXTT9=
EXTT10=
EXTT11=
EXTT12=
EXTT13=
EXTT14=
EXTT15=
EXTT16=
EXTT17=
EXTT18=
PLAYORDER=
